<svg id="Layer_1" data-name="Layer 1" xmlns="http://www.w3.org/2000/svg" viewBox="0 0 100 100"><defs><style>.cls-1{fill:#fff;opacity:0;}.cls-2{fill:#949494;}.cls-3{fill:#dedede;}.cls-4{fill:#797979;}.cls-5{fill:#b5b5b5;}</style></defs><rect class="cls-1" width="100" height="100"/><rect class="cls-2" x="20" y="15.07" width="60" height="77.93" rx="3"/><rect class="cls-3" x="24" y="20.01" width="52" height="68.99"/><path class="cls-4" d="M58,12H57a7,7,0,0,0-14,0H42A8.27,8.27,0,0,0,34,20v2H66V20A8.27,8.27,0,0,0,58,12Zm-8,3.21A3.14,3.14,0,1,1,53.14,12,3.14,3.14,0,0,1,50,15.16Z"/><rect class="cls-4" x="31.06" y="49.96" width="37.94" height="13.39" rx="2.86"/><circle class="cls-3" cx="61.19" cy="56.66" r="2.79"/><circle class="cls-3" cx="38.87" cy="56.66" r="2.79"/><path class="cls-4" d="M60.07,62.24h6.69a0,0,0,0,1,0,0V72a1.41,1.41,0,0,1-1.41,1.41H61.48A1.41,1.41,0,0,1,60.07,72V62.24A0,0,0,0,1,60.07,62.24Z"/><path class="cls-4" d="M33.29,62.24H40a0,0,0,0,1,0,0V72a1.41,1.41,0,0,1-1.41,1.41H34.7A1.41,1.41,0,0,1,33.29,72V62.24A0,0,0,0,1,33.29,62.24Z"/><path class="cls-4" d="M64.49,50H35.58l1.36-11.25a2.29,2.29,0,0,1,2.21-2.1H60.92a2.29,2.29,0,0,1,2.2,2.1Z"/><path class="cls-5" d="M60.82,50H39.25l1-8.46a1.7,1.7,0,0,1,1.64-1.58H58.15A1.72,1.72,0,0,1,59.8,41.5Z"/></svg>