<svg id="Layer_1" data-name="Layer 1" xmlns="http://www.w3.org/2000/svg" viewBox="0 0 100 100"><defs><style>.cls-1{fill:#fff;opacity:0;}.cls-2{fill:#797979;}.cls-3{fill:#b5b5b5;}</style></defs><rect class="cls-1" width="100" height="100"/><path class="cls-2" d="M76.91,83.36,50.64,73.85,24.37,83.36a1,1,0,0,1-1.45-.89V18.28a1,1,0,0,1,1-1H77.36a1,1,0,0,1,1,1V82.47A1,1,0,0,1,76.91,83.36Z"/><path class="cls-3" d="M50.64,56.14l-11.44,8a.45.45,0,0,1-.68-.5l4-13.33-11.1-8.42a.44.44,0,0,1,.26-.8l13.92-.28,4.58-13.16a.44.44,0,0,1,.84,0l4.57,13.16,13.93.28a.44.44,0,0,1,.26.8l-11.1,8.42,4,13.33a.45.45,0,0,1-.69.5Z"/></svg>