<svg id="Layer_1" data-name="Layer 1" xmlns="http://www.w3.org/2000/svg" viewBox="0 0 100 100"><defs><style>.cls-1{fill:#fff;opacity:0;}.cls-2{fill:#cacaca;}.cls-3{fill:#797979;}</style></defs><rect class="cls-1" x="-0.21" y="0.2" width="100" height="100"/><circle class="cls-2" cx="28.49" cy="28.49" r="18.49"/><circle class="cls-3" cx="21.3" cy="20.27" r="2.05"/><circle class="cls-3" cx="35.68" cy="20.27" r="2.05"/><path class="cls-3" d="M19.25,27a9.25,9.25,0,1,0,18.49,0Z"/><circle class="cls-2" cx="71.25" cy="28.49" r="18.49"/><path class="cls-3" d="M79,22.07a19.7,19.7,0,0,0,2.75,2,9,9,0,0,0,3.16.95h0a.37.37,0,0,1,0,.74A6.32,6.32,0,0,1,83,25.72a6.17,6.17,0,0,1-1.8-.65,9.49,9.49,0,0,1-2.74-2.48.37.37,0,0,1,.06-.52A.36.36,0,0,1,79,22.07Z"/><path class="cls-3" d="M64.06,22.59a9.49,9.49,0,0,1-2.74,2.48,6.07,6.07,0,0,1-1.8.65,6.32,6.32,0,0,1-1.89.06.36.36,0,0,1-.32-.41.38.38,0,0,1,.31-.33h0a9,9,0,0,0,3.16-.95,19.7,19.7,0,0,0,2.75-2,.37.37,0,0,1,.52.06A.38.38,0,0,1,64.06,22.59Z"/><path class="cls-3" d="M74.83,30.38A7.46,7.46,0,0,0,77,31.55a5.32,5.32,0,0,0,2.2.21,7.47,7.47,0,0,0,2.2-.61,13.12,13.12,0,0,0,2.19-1.29h0a.31.31,0,0,1,.43.07.29.29,0,0,1,0,.27,5.36,5.36,0,0,1-4.68,3.6,5.11,5.11,0,0,1-3.13-.71,4.43,4.43,0,0,1-1.92-2.38.3.3,0,0,1,.2-.38.28.28,0,0,1,.28,0Z"/><path class="cls-3" d="M68.15,30.71a4.43,4.43,0,0,1-1.92,2.38,5.11,5.11,0,0,1-3.13.71,5.36,5.36,0,0,1-4.68-3.6.31.31,0,0,1,.21-.39.34.34,0,0,1,.26.05h0a13.12,13.12,0,0,0,2.19,1.29,7.47,7.47,0,0,0,2.2.61,5.32,5.32,0,0,0,2.2-.21,7.46,7.46,0,0,0,2.17-1.17h0a.31.31,0,0,1,.43.07A.3.3,0,0,1,68.15,30.71Z"/><ellipse class="cls-3" cx="71.25" cy="40.31" rx="4.11" ry="1.03"/><circle class="cls-2" cx="71.51" cy="71.51" r="18.49"/><circle class="cls-3" cx="64.32" cy="68.54" r="2.05"/><circle class="cls-3" cx="78.7" cy="68.54" r="2.05"/><path class="cls-3" d="M67.31,78.83c0,2.37.66,6.2,4.2,6.2s4.19-3.83,4.19-6.2a4.2,4.2,0,1,0-8.39,0Z"/><circle class="cls-2" cx="29.28" cy="71.51" r="18.49"/><ellipse class="cls-3" cx="22.49" cy="73.56" rx="2.05" ry="2.92"/><ellipse class="cls-3" cx="36.87" cy="73.56" rx="2.05" ry="2.92"/><path class="cls-3" d="M19.52,66.4a19.13,19.13,0,0,0,2.75,2,9,9,0,0,0,3.15,1h0a.37.37,0,0,1,0,.74,6.27,6.27,0,0,1-1.88-.06,5.82,5.82,0,0,1-1.8-.66A9.2,9.2,0,0,1,19,66.92a.37.37,0,0,1,.06-.52A.36.36,0,0,1,19.52,66.4Z"/><path class="cls-3" d="M39.84,66.4a19.13,19.13,0,0,1-2.75,2,8.89,8.89,0,0,1-3.15,1h0a.37.37,0,0,0-.32.42.38.38,0,0,0,.33.32,6.27,6.27,0,0,0,1.88-.06,5.88,5.88,0,0,0,1.81-.66,9.16,9.16,0,0,0,2.73-2.47.37.37,0,0,0-.06-.52A.36.36,0,0,0,39.84,66.4Z"/><path class="cls-3" d="M23.69,83.54c.42.38,2.81-1.51,6-1.43,3.18-.08,5.57,1.81,6,1.43S33.93,79,29.68,79,23.16,83.25,23.69,83.54Z"/></svg>