<svg id="Layer_1" data-name="Layer 1" xmlns="http://www.w3.org/2000/svg" viewBox="0 0 100 100"><defs><style>.cls-1,.cls-4{fill:#fff;}.cls-1{opacity:0;}.cls-2{fill:#b5b5b5;}.cls-3{fill:#dedede;}.cls-4{opacity:0.4;}</style></defs><rect class="cls-1" width="100" height="100"/><circle class="cls-2" cx="53" cy="71" r="23"/><circle class="cls-2" cx="76" cy="27" r="15"/><path class="cls-3" d="M27.29,23.21a1.43,1.43,0,0,1-1.43-1.43V12.24a1.43,1.43,0,0,1,2.86,0v9.54A1.43,1.43,0,0,1,27.29,23.21Z"/><path class="cls-3" d="M27.29,48a1.43,1.43,0,0,1-1.43-1.43V37a1.43,1.43,0,1,1,2.86,0v9.54A1.43,1.43,0,0,1,27.29,48Z"/><path class="cls-3" d="M20.69,27a1.44,1.44,0,0,1-.72-.19l-8.25-4.77a1.43,1.43,0,1,1,1.43-2.47l8.25,4.76A1.43,1.43,0,0,1,20.69,27Z"/><path class="cls-3" d="M42.16,39.42a1.44,1.44,0,0,1-.72-.19l-8.25-4.77A1.43,1.43,0,1,1,34.62,32l8.25,4.77a1.43,1.43,0,0,1,.53,2A1.44,1.44,0,0,1,42.16,39.42Z"/><path class="cls-3" d="M12.43,39.42a1.44,1.44,0,0,1-1.24-.72,1.43,1.43,0,0,1,.53-2L20,32a1.43,1.43,0,1,1,1.43,2.48l-8.25,4.77A1.46,1.46,0,0,1,12.43,39.42Z"/><path class="cls-3" d="M33.9,27a1.43,1.43,0,0,1-.71-2.67l8.25-4.76a1.43,1.43,0,1,1,1.43,2.47l-8.25,4.77A1.46,1.46,0,0,1,33.9,27Z"/><path class="cls-4" d="M68.91,64.36l-.84.38a1.72,1.72,0,0,1-2.29-.69,12.12,12.12,0,0,0-4.13-4.63,1.73,1.73,0,0,1-.42-2.36l.47-.79a2,2,0,0,1,2.76-.8A16,16,0,0,1,70,61.71,2,2,0,0,1,68.91,64.36Z"/><path class="cls-4" d="M85.62,20.69l-.53.3a1.15,1.15,0,0,1-1.57-.3,8.1,8.1,0,0,0-3-2.8A1.15,1.15,0,0,1,80,16.36l.26-.56a1.35,1.35,0,0,1,1.78-.71,10.6,10.6,0,0,1,4.1,3.76A1.35,1.35,0,0,1,85.62,20.69Z"/></svg>