<svg id="Layer_1" data-name="Layer 1" xmlns="http://www.w3.org/2000/svg" viewBox="0 0 100 100"><defs><style>.cls-1{fill:#fff;opacity:0;}.cls-2{fill:#b5b5b5;}.cls-3{fill:#cacaca;}</style></defs><rect class="cls-1" width="100" height="100"/><path class="cls-2" d="M66.1,22.35A28.5,28.5,0,0,1,29.51,64.73a.77.77,0,0,0-1.08,1A32.3,32.3,0,1,0,66.94,21.14.77.77,0,0,0,66.1,22.35Z"/><path class="cls-3" d="M21,47.49l6.18,2.44a.38.38,0,0,1,0,.71L21,53.07l-2.44,6.19a.38.38,0,0,1-.71,0l-2.44-6.19L9.25,50.64a.38.38,0,0,1,0-.71l6.18-2.44,2.44-6.18a.38.38,0,0,1,.71,0Z"/><path class="cls-3" d="M45.94,26.36,55.24,30a.58.58,0,0,1,0,1.07l-9.3,3.67-3.67,9.3a.58.58,0,0,1-1.07,0l-3.67-9.3-9.3-3.67a.58.58,0,0,1,0-1.07l9.3-3.67,3.67-9.3a.58.58,0,0,1,1.07,0Z"/></svg>