<svg id="Layer_1" data-name="Layer 1" xmlns="http://www.w3.org/2000/svg" viewBox="0 0 100 100"><defs><style>.cls-1{opacity:0;}.cls-2{fill:#fff;}.cls-3{fill:#949494;}.cls-4{fill:#dedede;}.cls-5{fill:#797979;}.cls-6{fill:#b5b5b5;}</style></defs><g class="cls-1"><rect class="cls-2" width="100" height="100"/></g><rect class="cls-3" x="12" y="13" width="52.48" height="52.48"/><path class="cls-4" d="M18.4,24.9V21.58l1.81-3.46h2.21l-.85,3.19h.9a.76.76,0,0,1,.77.77V24.9a.77.77,0,0,1-.77.77h-3.3A.77.77,0,0,1,18.4,24.9Zm6.69,0V21.58l1.81-3.46h2.21l-.85,3.19h.9a.76.76,0,0,1,.77.77V24.9a.77.77,0,0,1-.77.77h-3.3A.77.77,0,0,1,25.09,24.9Z"/><path class="cls-4" d="M57.24,32.9h-38a.9.9,0,1,1,0-1.8h38a.9.9,0,0,1,0,1.8Z"/><path class="cls-4" d="M57.24,41.35h-38a.91.91,0,1,1,0-1.81h38a.91.91,0,0,1,0,1.81Z"/><path class="cls-4" d="M57.24,49.79h-38a.91.91,0,1,1,0-1.81h38a.91.91,0,0,1,0,1.81Z"/><path class="cls-4" d="M57.24,58.24h-38a.91.91,0,1,1,0-1.81h38a.91.91,0,0,1,0,1.81Z"/><rect class="cls-4" x="35.52" y="36.52" width="52.48" height="52.48"/><polygon class="cls-5" points="79.86 62.76 70.81 72.71 54.52 57.33 40.95 70.06 40.95 83.57 82.57 83.57 82.57 64.8 79.86 62.76"/><polygon class="cls-6" points="70.81 72.71 79.86 62.76 82.57 64.8 82.57 41.95 40.95 41.95 40.95 70.06 54.52 57.33 70.81 72.71"/><circle class="cls-4" cx="72.62" cy="53.71" r="4.52"/></svg>