<svg id="Layer_1" data-name="Layer 1" xmlns="http://www.w3.org/2000/svg" viewBox="0 0 100 100"><defs><style>.cls-1{fill:#fff;opacity:0;}.cls-2{fill:#797979;}.cls-3{fill:#b5b5b5;}</style></defs><rect class="cls-1" width="100" height="100"/><path class="cls-2" d="M50.31,51H70.63a13.79,13.79,0,1,0-5.22-26.54,18,18,0,0,0-33.07,3.29A12.09,12.09,0,0,0,27,26.49,12.26,12.26,0,1,0,27,51H43.72"/><path class="cls-3" d="M50.33,39.07,34.29,68a.72.72,0,0,0,.63,1.07H48L45.24,91.77a.52.52,0,0,0,1,.33L64.83,60.48a.72.72,0,0,0-.62-1.08H49.58l1.73-20A.52.52,0,0,0,50.33,39.07Z"/></svg>