<svg id="Layer_1" data-name="Layer 1" xmlns="http://www.w3.org/2000/svg" viewBox="0 0 100 100"><defs><style>.cls-1{fill:#fff;opacity:0;}.cls-2{fill:#b5b5b5;}.cls-3{fill:#797979;}.cls-4{fill:#cacaca;}.cls-5{fill:#949494;}</style></defs><rect class="cls-1" width="100" height="100"/><path class="cls-2" d="M27.2,47.84V13.06a17.39,17.39,0,0,0,0,34.78Z"/><path class="cls-3" d="M44.59,30.45A17.39,17.39,0,0,0,27.2,13.06V47.84A17.4,17.4,0,0,0,44.59,30.45Z"/><path class="cls-4" d="M85.9,55.22a14.68,14.68,0,0,0,0-20.74h0a14.68,14.68,0,0,0-20.74,0L50.45,49.2,71.18,69.93Z"/><path class="cls-5" d="M50.45,49.2,35.73,63.91a14.68,14.68,0,0,0,0,20.74h0a14.68,14.68,0,0,0,20.74,0L71.18,69.93Z"/></svg>