<svg id="Layer_1" data-name="Layer 1" xmlns="http://www.w3.org/2000/svg" viewBox="0 0 100 100"><defs><style>.cls-1{fill:#fff;opacity:0;}.cls-2{fill:#b5b5b5;}.cls-3{fill:#cacaca;}.cls-4{fill:#f2f2f2;}.cls-5{fill:#949494;}</style></defs><rect class="cls-1" width="100" height="100"/><rect class="cls-2" x="16" y="15" width="68" height="70" rx="6.08"/><path class="cls-3" d="M68.92,32.75A4.9,4.9,0,0,0,69,32V28a5,5,0,0,0-5-5H36a5,5,0,0,0-5,5v4a4.9,4.9,0,0,0,.08.77,27,27,0,0,1,37.84,0Z"/><path class="cls-4" d="M36,37H64a5,5,0,0,0,4.94-4.25,27,27,0,0,0-37.84,0A5,5,0,0,0,36,37Z"/><path class="cls-5" d="M49,37h2V27a1,1,0,0,0-2,0Z"/></svg>