<svg id="Layer_1" data-name="Layer 1" xmlns="http://www.w3.org/2000/svg" viewBox="0 0 100 100"><defs><style>.cls-1{fill:#fff;opacity:0;}.cls-2{fill:#949494;}.cls-3{fill:#dedede;}.cls-4{fill:#797979;}.cls-5{fill:#b5b5b5;}</style></defs><rect class="cls-1" width="100" height="100"/><rect class="cls-2" x="20" y="15.07" width="60" height="77.93" rx="3"/><rect class="cls-3" x="24" y="20.01" width="52" height="68.99"/><path class="cls-4" d="M58,12H57a7,7,0,0,0-14,0H42A8.27,8.27,0,0,0,34,20v2H66V20A8.27,8.27,0,0,0,58,12Zm-8,3.21A3.14,3.14,0,1,1,53.14,12,3.14,3.14,0,0,1,50,15.16Z"/><path class="cls-2" d="M64.78,48.78c-2,2-1.87,5.31-1.87,5.31s3.32.11,5.31-1.88,1.87-5.31,1.87-5.31S66.76,46.79,64.78,48.78Z"/><circle class="cls-2" cx="62.2" cy="63.11" r="8.64"/><polygon class="cls-4" points="32.67 71.75 49.66 71.75 51.37 50.56 30.96 50.56 32.67 71.75"/><polygon class="cls-5" points="30.01 38.74 30.96 50.56 51.37 50.56 52.32 38.74 30.01 38.74"/></svg>