<svg id="Layer_1" data-name="Layer 1" xmlns="http://www.w3.org/2000/svg" viewBox="0 0 100 100"><defs><style>.cls-1{fill:#fff;opacity:0;}.cls-2{fill:#797979;}.cls-3{fill:#b5b5b5;}</style></defs><rect class="cls-1" width="100" height="100"/><rect class="cls-2" x="3.57" y="43.29" width="93.52" height="12.83" rx="4.76" transform="translate(49.89 -21.03) rotate(45)"/><path class="cls-3" d="M90.18,63.84,86.34,60A2.34,2.34,0,0,0,84,59.42l5-5a2.33,2.33,0,0,0,0-3.31l-5.7-5.7a2.33,2.33,0,0,0-3.31,0L44.21,81.19a2.35,2.35,0,0,0,0,3.31l5.71,5.71a2.35,2.35,0,0,0,3.31,0l7-7a2.32,2.32,0,0,0,.58,2.32l3.84,3.84a2.35,2.35,0,0,0,3.31,0L90.18,67.15A2.35,2.35,0,0,0,90.18,63.84Z"/><path class="cls-3" d="M54.6,16.74,48.9,11a2.33,2.33,0,0,0-3.31,0L40.5,16.12A2.35,2.35,0,0,0,40,13.63L36.13,9.79a2.35,2.35,0,0,0-3.31,0L10.58,32a2.35,2.35,0,0,0,0,3.31l3.84,3.84a2.33,2.33,0,0,0,2.49.53L9.82,46.8a2.35,2.35,0,0,0,0,3.31l5.71,5.71a2.35,2.35,0,0,0,3.31,0L54.6,20.05A2.33,2.33,0,0,0,54.6,16.74Z"/></svg>