<svg id="Layer_1" data-name="Layer 1" xmlns="http://www.w3.org/2000/svg" viewBox="0 0 100 100"><defs><style>.cls-1{fill:#fff;opacity:0;}.cls-2{fill:#949494;}.cls-3{fill:#dedede;}.cls-4{fill:#797979;}.cls-5{fill:#b5b5b5;}</style></defs><rect class="cls-1" width="100" height="100"/><rect class="cls-2" x="20" y="15.07" width="60" height="77.93" rx="3"/><rect class="cls-3" x="24" y="20.01" width="52" height="68.99"/><path class="cls-4" d="M58,12H57a7,7,0,0,0-14,0H42A8.27,8.27,0,0,0,34,20v2H66V20A8.27,8.27,0,0,0,58,12Zm-8,3.21A3.14,3.14,0,1,1,53.14,12,3.14,3.14,0,0,1,50,15.16Z"/><circle class="cls-5" cx="50.29" cy="57.31" r="19.29"/><path class="cls-4" d="M58.33,50.6a20.15,20.15,0,0,0,2.87,2.12,9.41,9.41,0,0,0,3.29,1h0a.38.38,0,0,1,.33.43.4.4,0,0,1-.34.34,6.53,6.53,0,0,1-2-.07,6.16,6.16,0,0,1-1.88-.68,9.58,9.58,0,0,1-2.85-2.58.39.39,0,0,1,.06-.55A.41.41,0,0,1,58.33,50.6Z"/><path class="cls-4" d="M42.79,51.15a9.58,9.58,0,0,1-2.85,2.58,6.12,6.12,0,0,1-1.89.68,6.46,6.46,0,0,1-2,.07.39.39,0,0,1-.34-.43.38.38,0,0,1,.33-.34h0a9.41,9.41,0,0,0,3.29-1,20.15,20.15,0,0,0,2.87-2.12.38.38,0,0,1,.54.07A.38.38,0,0,1,42.79,51.15Z"/><path class="cls-4" d="M54,59.27a7.39,7.39,0,0,0,2.26,1.22,5.64,5.64,0,0,0,2.3.23,7.78,7.78,0,0,0,2.29-.64,13.38,13.38,0,0,0,2.28-1.34h0a.32.32,0,0,1,.45.08.32.32,0,0,1,.05.28,5.58,5.58,0,0,1-4.89,3.75,5.32,5.32,0,0,1-3.26-.74,4.62,4.62,0,0,1-2-2.48.31.31,0,0,1,.21-.4.31.31,0,0,1,.28.05Z"/><path class="cls-4" d="M47.06,59.62a4.66,4.66,0,0,1-2,2.48,5.32,5.32,0,0,1-3.26.74,5.58,5.58,0,0,1-4.89-3.75.32.32,0,0,1,.49-.36h0a13.38,13.38,0,0,0,2.28,1.34,7.78,7.78,0,0,0,2.29.64,5.64,5.64,0,0,0,2.3-.23,7.5,7.5,0,0,0,2.26-1.22h0a.32.32,0,0,1,.45.06A.31.31,0,0,1,47.06,59.62Z"/><ellipse class="cls-4" cx="50.29" cy="69.63" rx="4.29" ry="1.07"/></svg>