<svg width="100" height="100" viewBox="0 0 100 100" fill="none" xmlns="http://www.w3.org/2000/svg">
<!-- Grid lines -->
<rect x="28" y="28" width="56" height="56" rx="3" stroke="#C75E5A" stroke-width="2" fill="none"/>
<line x1="42" y1="28" x2="42" y2="84" stroke="#C75E5A" stroke-width="1.5"/>
<line x1="56" y1="28" x2="56" y2="84" stroke="#C75E5A" stroke-width="1.5"/>
<line x1="70" y1="28" x2="70" y2="84" stroke="#C75E5A" stroke-width="1.5"/>
<line x1="28" y1="42" x2="84" y2="42" stroke="#C75E5A" stroke-width="1.5"/>
<line x1="28" y1="56" x2="84" y2="56" stroke="#C75E5A" stroke-width="1.5"/>
<line x1="28" y1="70" x2="84" y2="70" stroke="#C75E5A" stroke-width="1.5"/>
<!-- Filled cells (cross pattern) — all same color -->
<rect x="42" y="28" width="14" height="14" fill="#FAC1B5"/>
<rect x="28" y="42" width="14" height="14" fill="#FAC1B5"/>
<rect x="42" y="42" width="14" height="14" fill="#FAC1B5"/>
<rect x="56" y="42" width="14" height="14" fill="#FAC1B5"/>
<rect x="42" y="56" width="14" height="14" fill="#FAC1B5"/>
<rect x="42" y="70" width="14" height="14" fill="#FAC1B5"/>
<rect x="70" y="56" width="14" height="14" fill="#FAC1B5"/>
<!-- Row/col hints — all same color -->
<text x="22" y="39" font-family="sans-serif" font-size="8" fill="#F9907B" text-anchor="middle">1</text>
<text x="22" y="53" font-family="sans-serif" font-size="8" fill="#F9907B" text-anchor="middle">3</text>
<text x="16" y="67" font-family="sans-serif" font-size="8" fill="#F9907B" text-anchor="middle">1</text><text x="24" y="67" font-family="sans-serif" font-size="8" fill="#F9907B" text-anchor="middle">1</text>
<text x="22" y="81" font-family="sans-serif" font-size="8" fill="#F9907B" text-anchor="middle">1</text>
<text x="35" y="24" font-family="sans-serif" font-size="8" fill="#F9907B" text-anchor="middle">1</text>
<text x="49" y="24" font-family="sans-serif" font-size="8" fill="#F9907B" text-anchor="middle">4</text>
<text x="63" y="24" font-family="sans-serif" font-size="8" fill="#F9907B" text-anchor="middle">1</text>
<text x="77" y="24" font-family="sans-serif" font-size="8" fill="#F9907B" text-anchor="middle">1</text>
</svg>
