<svg id="Layer_1" data-name="Layer 1" xmlns="http://www.w3.org/2000/svg" viewBox="0 0 100 100"><defs><style>.cls-1{fill:#fff;opacity:0;}.cls-2{fill:#cacaca;}.cls-3{fill:#949494;}.cls-4{fill:#b5b5b5;}</style></defs><rect class="cls-1" width="100" height="100"/><path class="cls-2" d="M88.16,56.1a.5.5,0,0,0-.82-.4c-1.41,1.29-4.38,1.43-6,1.41C78.55,45.36,65.54,36.46,49.89,36.46a38.8,38.8,0,0,0-14.56,2.78l-8.47-3.76a1.4,1.4,0,0,0-2,1.34l.41,8.77a24.22,24.22,0,0,0-6.06,8.92L13,56.21V67.37l6.27,1.7a25.81,25.81,0,0,0,10,12.08l.68,8.58A1.37,1.37,0,0,0,31.31,91h7.48a1.37,1.37,0,0,0,1.37-1.37v-3.7a40,40,0,0,0,9.73,1.19,39.21,39.21,0,0,0,11.37-1.65v4.16A1.38,1.38,0,0,0,62.63,91h7.48a1.38,1.38,0,0,0,1.38-1.27l.77-9.83c5.94-4.6,9.63-11,9.63-18.11,0,0,0-.07,0-.11C85.86,61,88,58.91,88.16,56.1Z"/><circle class="cls-3" cx="26.25" cy="54.29" r="2.06"/><path class="cls-3" d="M61.33,44a1.09,1.09,0,0,1-.46-.1s-4-2-10.89-2-9.72,1.88-9.75,1.89a1,1,0,0,1-1.14-1.72c.14-.09,3.44-2.23,10.89-2.23S61.62,41.93,61.79,42A1,1,0,0,1,61.33,44Z"/><path class="cls-4" d="M51,9a10.89,10.89,0,0,0-7.7,18.58l15.4-15.39A10.85,10.85,0,0,0,51,9Z"/><path class="cls-3" d="M58.66,12.19,43.26,27.58a10.89,10.89,0,0,0,15.4-15.39Z"/></svg>