<svg id="Layer_1" data-name="Layer 1" xmlns="http://www.w3.org/2000/svg" viewBox="0 0 100 100"><defs><style>.cls-1{fill:#fff;opacity:0;}.cls-2{fill:#cacaca;}.cls-3{fill:#949494;}.cls-4{fill:none;}.cls-5{fill:#797979;}.cls-6{fill:#dedede;}</style></defs><rect class="cls-1" width="100" height="100"/><rect class="cls-2" x="21.11" y="16.91" width="51.89" height="68.09"/><path class="cls-3" d="M59.52,34.72H34.59a1.5,1.5,0,0,1,0-3H59.52a1.5,1.5,0,1,1,0,3Z"/><path class="cls-3" d="M59.52,46.64H34.59a1.5,1.5,0,0,1,0-3H59.52a1.5,1.5,0,0,1,0,3Z"/><path class="cls-3" d="M59.52,58.56H34.59a1.5,1.5,0,0,1,0-3H59.52a1.5,1.5,0,1,1,0,3Z"/><path class="cls-3" d="M59.52,70.49H34.59a1.5,1.5,0,0,1,0-3H59.52a1.5,1.5,0,0,1,0,3Z"/><path class="cls-4" d="M54,61.87l.74-2.77-.89,3.34.57-.16A.34.34,0,0,1,54,61.87Z"/><path class="cls-5" d="M93.4,31.05a5.77,5.77,0,0,0-8.15-8.16h0l-2,2,8.17,8.18-2,2L81.16,27,58,50.16l-1.1,1.11L65,59.44l24.3-24.3h0l4.08-4.08Z"/><rect class="cls-6" x="84.82" y="24.25" width="2.89" height="11.56" transform="translate(4.03 69.8) rotate(-45)"/><polygon class="cls-6" points="53.86 62.44 54.75 59.1 57.19 61.54 54.43 62.28 54.43 62.28 53.86 62.44 65.02 59.45 56.85 51.27 53.86 62.44"/><path class="cls-5" d="M54.43,62.28h0l2.76-.74L54.75,59.1,54,61.87A.34.34,0,0,0,54.43,62.28Z"/></svg>