<svg id="Layer_1" data-name="Layer 1" xmlns="http://www.w3.org/2000/svg" viewBox="0 0 100 100"><defs><style>.cls-1{fill:#fff;opacity:0;}.cls-2{fill:#dedede;}.cls-3{fill:#949494;}.cls-4{fill:#b5b5b5;}</style></defs><rect class="cls-1" width="100" height="100"/><polygon class="cls-2" points="80.4 83.35 16.35 83.35 16.35 62.72 38 34.76 62.15 51.55 80.4 27.37 80.4 83.35"/><path class="cls-3" d="M80.4,24.47a3.91,3.91,0,0,0-3.9,3.9,3.85,3.85,0,0,0,.58,2L63.62,48.94a3.82,3.82,0,0,0-3.22.14L41.86,36.56c0-.13,0-.25,0-.39a3.9,3.9,0,0,0-7.8,0,4,4,0,0,0,.43,1.76L16.11,62.82a1.5,1.5,0,0,0,.32,2.1,1.46,1.46,0,0,0,.89.29,1.49,1.49,0,0,0,1.2-.6l18.3-24.74a3.75,3.75,0,0,0,3.6-.66l18,12.17a4.09,4.09,0,0,0-.19,1.17,3.9,3.9,0,1,0,7.51-1.45L79.51,32.16a3.74,3.74,0,0,0,.89.11,3.9,3.9,0,0,0,0-7.8Z"/><path class="cls-4" d="M81.31,83.85H14.85V20.5a1.5,1.5,0,1,1,3,0V80.85H81.31a1.5,1.5,0,0,1,0,3Z"/></svg>