<svg id="Layer_1" data-name="Layer 1" xmlns="http://www.w3.org/2000/svg" viewBox="0 0 100 100"><defs><style>.cls-1{fill:#fff;opacity:0;}.cls-2{fill:#949494;}.cls-3{fill:#dedede;}.cls-4{fill:#797979;}.cls-5{fill:#b5b5b5;}</style></defs><rect class="cls-1" width="100" height="100"/><rect class="cls-2" x="20" y="15.07" width="60" height="77.93" rx="3"/><rect class="cls-3" x="24" y="20.01" width="52" height="68.99"/><path class="cls-4" d="M58,12H57a7,7,0,0,0-14,0H42A8.27,8.27,0,0,0,34,20v2H66V20A8.27,8.27,0,0,0,58,12Zm-8,3.21A3.14,3.14,0,1,1,53.14,12,3.14,3.14,0,0,1,50,15.16Z"/><path class="cls-4" d="M50.59,55.27H62a7.77,7.77,0,1,0-2.94-15,10.14,10.14,0,0,0-18.62,1.86,6.81,6.81,0,0,0-3-.71,6.9,6.9,0,1,0,0,13.8h9.43"/><path class="cls-5" d="M50.6,48.55l-9,16.3a.4.4,0,0,0,.35.6h7.39L47.74,78.22a.29.29,0,0,0,.54.19l10.48-17.8a.41.41,0,0,0-.34-.62H50.18l1-11.27A.29.29,0,0,0,50.6,48.55Z"/></svg>