<svg id="Layer_1" data-name="Layer 1" xmlns="http://www.w3.org/2000/svg" viewBox="0 0 100 100"><defs><style>.cls-1{fill:#fff;opacity:0;}.cls-2{fill:#dedede;}.cls-3{fill:#b5b5b5;}</style></defs><rect class="cls-1" width="100" height="100"/><path class="cls-2" d="M53.47,31.93l26.91-7.69L77.58,22c-17.06,0-25.33,5.85-27.65,7.85C47.6,27.85,39.34,22,22.28,22l-2.8,2.24,26.9,7.69Z"/><path class="cls-3" d="M81.63,23.88,53.47,31.93H46.38l-28.16-8A1.27,1.27,0,0,0,16.6,25.1V69.25a1.27,1.27,0,0,0,.92,1.22l28.86,8.25h7.09l28.86-8.25a1.27,1.27,0,0,0,.92-1.22V25.1A1.27,1.27,0,0,0,81.63,23.88Z"/><rect class="cls-2" x="47.1" y="45.36" width="5.63" height="18.76"/></svg>