<svg id="Layer_1" data-name="Layer 1" xmlns="http://www.w3.org/2000/svg" viewBox="0 0 100 100"><defs><style>.cls-1{fill:#fff;opacity:0;}.cls-2{fill:#949494;}.cls-3{fill:#dedede;}.cls-4{fill:#797979;}</style></defs><rect class="cls-1" width="100" height="100"/><rect class="cls-2" x="20" y="15.07" width="60" height="77.93" rx="3"/><rect class="cls-3" x="24" y="20.01" width="52" height="68.99"/><path class="cls-4" d="M58,12H57a7,7,0,0,0-14,0H42A8.27,8.27,0,0,0,34,20v2H66V20A8.27,8.27,0,0,0,58,12Zm-8,3.21A3.14,3.14,0,1,1,53.14,12,3.14,3.14,0,0,1,50,15.16Z"/><path class="cls-4" d="M57.54,41.24A14.66,14.66,0,0,1,38.71,63a.4.4,0,0,0-.56.52A16.62,16.62,0,1,0,58,40.61.4.4,0,0,0,57.54,41.24Z"/><path class="cls-2" d="M35.34,54.17l3.18,1.26a.19.19,0,0,1,0,.36l-3.18,1.26-1.25,3.18a.2.2,0,0,1-.37,0l-1.25-3.18-3.18-1.26a.19.19,0,0,1,0-.36l3.18-1.26L33.72,51a.2.2,0,0,1,.37,0Z"/><path class="cls-2" d="M48.16,43.3,53,45.19a.3.3,0,0,1,0,.55l-4.79,1.89-1.88,4.78a.3.3,0,0,1-.55,0l-1.89-4.78-4.79-1.89a.3.3,0,0,1,0-.55l4.79-1.89,1.89-4.78a.3.3,0,0,1,.55,0Z"/></svg>