<svg id="Layer_1" data-name="Layer 1" xmlns="http://www.w3.org/2000/svg" xmlns:xlink="http://www.w3.org/1999/xlink" viewBox="0 0 100 100"><defs><style>.cls-1{fill:#f9907b;}.cls-2{fill:#fff;opacity:0;}.cls-3{clip-path:url(#clip-path);}.cls-4{fill:#b5b5b5;}.cls-5{fill:#797979;}.cls-6{fill:#dedede;}</style><clipPath id="clip-path"><path class="cls-1" d="M69.47,20.24H30.53a1.58,1.58,0,0,0-1.13.46l-17,16.79a1.48,1.48,0,0,0-.09,2L48.86,83.23a1.49,1.49,0,0,0,2.28,0L87.65,39.5a1.48,1.48,0,0,0-.09-2L70.6,20.7A1.58,1.58,0,0,0,69.47,20.24Z"/></clipPath></defs><rect class="cls-2" width="100" height="100"/><path class="cls-1" d="M69.47,20.24H30.53a1.58,1.58,0,0,0-1.13.46l-17,16.79a1.48,1.48,0,0,0-.09,2L48.86,83.23a1.49,1.49,0,0,0,2.28,0L87.65,39.5a1.48,1.48,0,0,0-.09-2L70.6,20.7A1.58,1.58,0,0,0,69.47,20.24Z"/><g class="cls-3"><polygon class="cls-4" points="88.53 38.45 11.47 38.45 29.87 20.23 70.13 20.23 88.53 38.45"/><polygon class="cls-5" points="88.53 38.45 11.47 38.45 50 84.6 88.53 38.45"/><polygon class="cls-4" points="67.3 38.45 32.7 38.45 50 84.6 67.3 38.45"/><polygon class="cls-6" points="67.3 38.45 32.7 38.45 50 20.23 67.3 38.45"/></g></svg>