<svg id="Layer_1" data-name="Layer 1" xmlns="http://www.w3.org/2000/svg" viewBox="0 0 100 100"><defs><style>.cls-1{opacity:0;}.cls-2{fill:#fff;}.cls-3{fill:#b5b5b5;}.cls-4{fill:#dedede;}</style></defs><g class="cls-1"><rect class="cls-2" width="100" height="100"/></g><rect class="cls-3" x="16" y="13" width="68" height="74" rx="6.25"/><path class="cls-4" d="M42,79a4.93,4.93,0,0,1-2.91-.94A5,5,0,0,1,37,74.5c-.8-8,6.9-15.3,15.84-23.71L50.41,52.2a140.15,140.15,0,0,1-18.56,9.45A5,5,0,0,1,25,56.42c1.37-11.59,8-17.57,14.63-22.42a32.85,32.85,0,0,0-7.41,4.8,5,5,0,0,1-6.5-7.6A42.81,42.81,0,0,1,57.37,21a5,5,0,0,1,3.47,8.19c-4,4.8-8.67,8.13-12.79,11.07a59.85,59.85,0,0,0-7.81,6.21c1.76-1,3.48-2,5.18-2.94,7.48-4.32,15.22-8.78,24.75-11a5,5,0,0,1,5.63,7.1c-3.18,6.34-9.69,12.46-16,18.38-2.35,2.2-5.23,4.91-7.67,7.52A110.55,110.55,0,0,0,71.23,54.84a5,5,0,1,1,5.54,8.32C68,69,57.35,75.59,43.12,78.87A4.7,4.7,0,0,1,42,79Z"/></svg>