<svg id="Layer_1" data-name="Layer 1" xmlns="http://www.w3.org/2000/svg" viewBox="0 0 100 100"><defs><style>.cls-1{fill:#fff;opacity:0;}.cls-2{fill:#949494;}.cls-3{fill:#dedede;}.cls-4{fill:#797979;}</style></defs><rect class="cls-1" width="100" height="100"/><rect class="cls-2" x="20" y="15.07" width="60" height="77.93" rx="3"/><rect class="cls-3" x="24" y="20.01" width="52" height="68.99"/><path class="cls-4" d="M58,12H57a7,7,0,0,0-14,0H42A8.27,8.27,0,0,0,34,20v2H66V20A8.27,8.27,0,0,0,58,12Zm-8,3.21A3.14,3.14,0,1,1,53.14,12,3.14,3.14,0,0,1,50,15.16Z"/><path class="cls-4" d="M63.52,40.72H36.59a1.5,1.5,0,0,1,0-3H63.52a1.5,1.5,0,0,1,0,3Z"/><path class="cls-4" d="M63.52,52.64H36.59a1.5,1.5,0,0,1,0-3H63.52a1.5,1.5,0,0,1,0,3Z"/><path class="cls-4" d="M63.52,64.56H36.59a1.5,1.5,0,0,1,0-3H63.52a1.5,1.5,0,0,1,0,3Z"/><path class="cls-4" d="M63.52,76.49H36.59a1.5,1.5,0,0,1,0-3H63.52a1.5,1.5,0,0,1,0,3Z"/></svg>