<svg id="Layer_1" data-name="Layer 1" xmlns="http://www.w3.org/2000/svg" viewBox="0 0 100 100"><defs><style>.cls-1{fill:#fff;opacity:0;}.cls-2{fill:#949494;}.cls-3{fill:#dedede;}.cls-4{fill:#797979;}.cls-5{fill:#b5b5b5;}</style></defs><rect class="cls-1" width="100" height="100"/><rect class="cls-2" x="20" y="15.07" width="60" height="77.93" rx="3"/><rect class="cls-3" x="24" y="20.01" width="52" height="68.99"/><path class="cls-4" d="M58,12H57a7,7,0,0,0-14,0H42A8.27,8.27,0,0,0,34,20v2H66V20A8.27,8.27,0,0,0,58,12Zm-8,3.21A3.14,3.14,0,1,1,53.14,12,3.14,3.14,0,0,1,50,15.16Z"/><circle class="cls-5" cx="48.82" cy="56.35" r="18.82"/><circle class="cls-4" cx="41.5" cy="56.39" r="2.09"/><circle class="cls-4" cx="56.14" cy="56.39" r="2.09"/><path class="cls-4" d="M44.73,63.63h8.19a2.69,2.69,0,0,1,2.69,2.69v1.2a.64.64,0,0,1-.64.64H42.68a.64.64,0,0,1-.64-.64v-1.2a2.69,2.69,0,0,1,2.69-2.69Z"/><path class="cls-4" d="M70.78,51l-3-5.15a.23.23,0,0,0-.39,0l-3,5.15a3.75,3.75,0,0,0,3.16,5.72,3.74,3.74,0,0,0,3.79-3.75A3.8,3.8,0,0,0,70.78,51Z"/><path class="cls-4" d="M59.69,50.71a8.71,8.71,0,0,1-3.09-.92,13.87,13.87,0,0,1-2.12-1.52l-.63-.51a.73.73,0,0,0-.94,0,.76.76,0,0,0-.29.51.8.8,0,0,0,.16.56,10.21,10.21,0,0,0,2.9,2.61,6.44,6.44,0,0,0,3.17.82,5.82,5.82,0,0,0,.82,0,.73.73,0,0,0,.66-.65A.75.75,0,0,0,59.69,50.71Z"/><path class="cls-4" d="M44.27,47.59a.73.73,0,0,0-.47.17l-.63.51a13.53,13.53,0,0,1-2.11,1.51,8.62,8.62,0,0,1-3.09.93.75.75,0,0,0-.66.66.76.76,0,0,0,.67.84,5.82,5.82,0,0,0,.82,0A6.92,6.92,0,0,0,40,52.15,6.73,6.73,0,0,0,42,51.44a10.08,10.08,0,0,0,2.9-2.62.77.77,0,0,0,0-.94A.79.79,0,0,0,44.27,47.59Z"/></svg>