<svg id="Layer_1" data-name="Layer 1" xmlns="http://www.w3.org/2000/svg" viewBox="0 0 100 100"><defs><style>.cls-1{fill:#fff;opacity:0;}.cls-2{fill:#b5b5b5;}.cls-3{fill:#797979;}</style></defs><rect class="cls-1" width="100" height="100"/><circle class="cls-2" cx="26.72" cy="65.89" r="23.04"/><circle class="cls-2" cx="71.36" cy="38.04" r="23.04"/><circle class="cls-3" cx="17.76" cy="55.66" r="2.56"/><circle class="cls-3" cx="35.68" cy="55.66" r="2.56"/><path class="cls-3" d="M15.2,64a11.52,11.52,0,1,0,23,0Z"/><path class="cls-3" d="M81,30a24.07,24.07,0,0,0,3.42,2.53,11.28,11.28,0,0,0,3.94,1.18h0a.46.46,0,0,1,.39.52.48.48,0,0,1-.4.4A8.07,8.07,0,0,1,86,34.58a7.87,7.87,0,0,1-2.25-.81,11.67,11.67,0,0,1-3.41-3.09A.46.46,0,0,1,81,30Z"/><path class="cls-3" d="M62.41,30.68A11.67,11.67,0,0,1,59,33.77a7.87,7.87,0,0,1-2.25.81,8.07,8.07,0,0,1-2.35.08.46.46,0,0,1-.4-.52.46.46,0,0,1,.39-.4h0a11.28,11.28,0,0,0,3.94-1.18A24.07,24.07,0,0,0,61.76,30a.46.46,0,0,1,.65.65Z"/><path class="cls-3" d="M75.82,40.39a9.33,9.33,0,0,0,2.71,1.45,6.72,6.72,0,0,0,2.74.27A9.29,9.29,0,0,0,84,41.35a16.71,16.71,0,0,0,2.72-1.6h0a.39.39,0,0,1,.54.09.39.39,0,0,1,0,.33,6.7,6.7,0,0,1-5.84,4.49,6.38,6.38,0,0,1-3.89-.89,5.49,5.49,0,0,1-2.39-3,.38.38,0,0,1,.24-.48.39.39,0,0,1,.35.06Z"/><path class="cls-3" d="M67.5,40.8a5.49,5.49,0,0,1-2.39,3,6.38,6.38,0,0,1-3.89.89,6.7,6.7,0,0,1-5.84-4.49.39.39,0,0,1,.26-.48.38.38,0,0,1,.33.06h0a16.37,16.37,0,0,0,2.73,1.6,9.15,9.15,0,0,0,2.73.76,6.72,6.72,0,0,0,2.74-.27,9.33,9.33,0,0,0,2.71-1.45h0a.38.38,0,0,1,.54.08A.38.38,0,0,1,67.5,40.8Z"/><ellipse class="cls-3" cx="71.36" cy="52.75" rx="5.12" ry="1.28"/></svg>