<svg id="Layer_1" data-name="Layer 1" xmlns="http://www.w3.org/2000/svg" viewBox="0 0 100 100"><defs><style>.cls-1{fill:#fff;opacity:0;}.cls-2{fill:#949494;}.cls-3{fill:#dedede;}.cls-4{fill:#797979;}</style></defs><rect class="cls-1" width="100" height="100"/><rect class="cls-2" x="20" y="15.07" width="60" height="77.93" rx="3"/><rect class="cls-3" x="24" y="20.01" width="52" height="68.99"/><path class="cls-4" d="M58,12H57a7,7,0,0,0-14,0H42A8.27,8.27,0,0,0,34,20v2H66V20A8.27,8.27,0,0,0,58,12Zm-8,3.21A3.14,3.14,0,1,1,53.14,12,3.14,3.14,0,0,1,50,15.16Z"/><circle class="cls-2" cx="50" cy="55" r="19"/><path class="cls-4" d="M46.14,58.86A15.6,15.6,0,0,0,35,54.26a15.77,15.77,0,0,0-4,.52,19.51,19.51,0,0,0,.09,2.16,13.61,13.61,0,0,1,16.95,17,19.51,19.51,0,0,0,2.16.09A15.71,15.71,0,0,0,46.14,58.86Z"/><path class="cls-4" d="M68.93,53.42a13.59,13.59,0,0,1-16.86-17.3A19.77,19.77,0,0,0,49.89,36,15.71,15.71,0,0,0,65,56.12a16.12,16.12,0,0,0,4-.52A19.84,19.84,0,0,0,68.93,53.42Z"/><path class="cls-4" d="M64,67.87,37.13,41l-.57.54c-.31.32-.61.65-.9,1l26.8,26.8c.33-.29.66-.59,1-.9Z"/></svg>