<svg id="Layer_1" data-name="Layer 1" xmlns="http://www.w3.org/2000/svg" viewBox="0 0 100 100"><defs><style>.cls-1{fill:#fff;opacity:0;}.cls-2{fill:#dedede;}.cls-3{fill:#b5b5b5;}.cls-4{fill:#949494;}</style></defs><rect class="cls-1" width="100" height="100"/><circle class="cls-2" cx="50" cy="51" r="39"/><path class="cls-3" d="M50,14A37,37,0,1,1,13,51,37,37,0,0,1,50,14m0-4A41,41,0,1,0,91,51,41,41,0,0,0,50,10Z"/><path class="cls-4" d="M23.55,61.75a.33.33,0,0,1-.11-.27V40.12a.33.33,0,0,1,.11-.27.37.37,0,0,1,.27-.11h7.9a9.64,9.64,0,0,1,4.15.84,6.54,6.54,0,0,1,2.77,2.35,6.35,6.35,0,0,1,1,3.51v8.72a6.35,6.35,0,0,1-1,3.51A6.47,6.47,0,0,1,35.87,61a9.64,9.64,0,0,1-4.15.84h-7.9A.33.33,0,0,1,23.55,61.75ZM28.05,58h3.82a3.07,3.07,0,0,0,2.36-1,3.84,3.84,0,0,0,.93-2.63V47.17a3.75,3.75,0,0,0-.9-2.63,3.14,3.14,0,0,0-2.42-1H28.05a.14.14,0,0,0-.16.16V57.88A.14.14,0,0,0,28.05,58Z"/><path class="cls-4" d="M56.08,50.52a5.35,5.35,0,0,1,3,5.15A5.43,5.43,0,0,1,57,60.3a8.9,8.9,0,0,1-5.47,1.56H43.35a.38.38,0,0,1-.38-.38V40.12a.33.33,0,0,1,.11-.27.37.37,0,0,1,.27-.11h7.93q7.49,0,7.49,6.07a4.7,4.7,0,0,1-2.69,4.52C56,50.39,56,50.45,56.08,50.52Zm-8.66-6.8v4.93a.14.14,0,0,0,.16.16h3.7a3.45,3.45,0,0,0,2.31-.7,2.36,2.36,0,0,0,.82-1.89,2.48,2.48,0,0,0-.82-1.95,3.45,3.45,0,0,0-2.31-.71h-3.7A.15.15,0,0,0,47.42,43.72Zm6.39,13.54a2.94,2.94,0,0,0,0-4.07,3.31,3.31,0,0,0-2.31-.75H47.58a.15.15,0,0,0-.16.16v5.25a.15.15,0,0,0,.16.16h4A3.26,3.26,0,0,0,53.81,57.26Z"/><path class="cls-4" d="M77.46,39.85a.37.37,0,0,1,.11.27v3.1a.36.36,0,0,1-.11.26.33.33,0,0,1-.27.11H71.54a.14.14,0,0,0-.16.16V61.48a.37.37,0,0,1-.11.27.36.36,0,0,1-.27.11H67.3a.35.35,0,0,1-.27-.11.37.37,0,0,1-.11-.27V43.75a.14.14,0,0,0-.16-.16h-5.5a.38.38,0,0,1-.37-.37v-3.1a.33.33,0,0,1,.11-.27.36.36,0,0,1,.26-.11H77.19A.37.37,0,0,1,77.46,39.85Z"/></svg>