<svg id="Layer_1" data-name="Layer 1" xmlns="http://www.w3.org/2000/svg" viewBox="0 0 333 190"><defs><style>.cls-1{fill:#a67200;}.cls-2{fill:#d2961f;}.cls-3{fill:#f1bd39;}.cls-4{fill:#ffd645;}.cls-5{fill:#ffe27a;}.cls-6{fill:#ffedb0;}.cls-7{fill:#fff9e5;}.cls-8{fill:#862a28;}.cls-9{fill:#bc453d;}.cls-10{fill:#e46759;}.cls-11{fill:#fe8470;}.cls-12{fill:#ffac98;}.cls-13{fill:#ffcec2;}.cls-14{fill:#ffefec;}.cls-15{fill:#00765c;}.cls-16{fill:#2f9d7e;}.cls-17{fill:#38c396;}.cls-18{fill:#65deb4;}.cls-19{fill:#92e7ca;}.cls-20{fill:#bcefdd;}.cls-21{fill:#e7f8f2;}.cls-22{fill:#353bb6;}.cls-23{fill:#4c66d6;}.cls-24{fill:#618ef7;}.cls-25{fill:#7db2ff;}.cls-26{fill:#a3cfff;}.cls-27{fill:#cfe4ff;}.cls-28{fill:#ecf4ff;}</style></defs><rect class="cls-1" x="285.51" y="142.32" width="47.68" height="47.68"/><rect class="cls-2" x="238.08" y="142.32" width="47.68" height="47.68"/><rect class="cls-3" x="190.65" y="142.32" width="47.68" height="47.68"/><rect class="cls-4" x="143.22" y="142.32" width="47.68" height="47.68"/><rect class="cls-5" x="95.65" y="142.32" width="47.68" height="47.68"/><rect class="cls-6" x="48.08" y="142.32" width="47.68" height="47.68"/><rect class="cls-7" x="0.51" y="142.32" width="47.68" height="47.68"/><rect class="cls-8" x="285.61" y="47.81" width="47.68" height="47.68"/><rect class="cls-9" x="238.14" y="47.81" width="47.68" height="47.68"/><rect class="cls-10" x="190.67" y="47.81" width="47.68" height="47.68"/><rect class="cls-11" x="143.2" y="47.81" width="47.68" height="47.68"/><rect class="cls-12" x="95.6" y="47.81" width="47.68" height="47.68"/><rect class="cls-13" x="48.01" y="47.81" width="47.68" height="47.68"/><rect class="cls-14" x="0.41" y="47.81" width="47.68" height="47.68"/><rect class="cls-15" x="285.7" y="95.13" width="47.68" height="47.68"/><rect class="cls-16" x="238.2" y="95.13" width="47.68" height="47.68"/><rect class="cls-17" x="190.69" y="95.13" width="47.68" height="47.68"/><rect class="cls-18" x="143.18" y="95.13" width="47.68" height="47.68"/><rect class="cls-19" x="95.56" y="95.13" width="47.68" height="47.68"/><rect class="cls-20" x="47.94" y="95.13" width="47.68" height="47.68"/><rect class="cls-21" x="0.32" y="95.13" width="47.68" height="47.68"/><rect class="cls-22" x="285.8" y="0.45" width="47.68" height="47.68"/><rect class="cls-23" x="238.25" y="0.45" width="47.68" height="47.68"/><rect class="cls-24" x="190.71" y="0.45" width="47.68" height="47.68"/><rect class="cls-25" x="143.16" y="0.45" width="47.68" height="47.68"/><rect class="cls-26" x="95.51" y="0.45" width="47.68" height="47.68"/><rect class="cls-27" x="47.87" y="0.45" width="47.68" height="47.68"/><rect class="cls-28" x="0.22" y="0.45" width="47.68" height="47.68"/></svg>