<svg id="Layer_1" data-name="Layer 1" xmlns="http://www.w3.org/2000/svg" viewBox="0 0 100 100"><defs><style>.cls-1{fill:#fff;opacity:0;}.cls-2{fill:#b5b5b5;}.cls-3{fill:#797979;}</style></defs><rect class="cls-1" width="100" height="100"/><path class="cls-2" d="M88,36.62A18.74,18.74,0,0,0,56.22,24.17v0l-5.66,5.66L44.9,24.15v0A18.74,18.74,0,0,0,18.59,50.86l-.08,0L50,82.35a.83.83,0,0,0,1.18,0L82.62,50.89l-.08,0A18.7,18.7,0,0,0,88,36.62Z"/><path class="cls-3" d="M45.47,68.24h-.1A1.51,1.51,0,0,1,44,67L39.34,42.18l-3.07,12.2a1.49,1.49,0,0,1-1.45,1.13h-24a1.5,1.5,0,1,1,0-3H33.65l4.45-17.7A1.5,1.5,0,0,1,41,34.9l4.83,25.8,5.35-16.35a1.49,1.49,0,0,1,1.4-1h0a1.49,1.49,0,0,1,1.41,1L58.77,57l3.06-4.33a1.53,1.53,0,0,1,1.23-.63H89a1.5,1.5,0,0,1,0,3H63.84l-4.26,6a1.51,1.51,0,0,1-1.42.62,1.53,1.53,0,0,1-1.21-1L52.73,49.36,46.89,67.2A1.5,1.5,0,0,1,45.47,68.24Z"/></svg>