<svg id="Layer_1" data-name="Layer 1" xmlns="http://www.w3.org/2000/svg" viewBox="0 0 100 100"><defs><style>.cls-1{fill:#fff;opacity:0;}.cls-2{fill:#b5b5b5;}.cls-3{fill:#797979;}</style></defs><rect class="cls-1" width="100" height="100"/><path class="cls-2" d="M51.25,11.75H25.93A17.23,17.23,0,0,0,8.7,29h0a17.11,17.11,0,0,0,3.07,9.8h0L6.67,51.69a.62.62,0,0,0,.84.78L22.2,45.8a17.62,17.62,0,0,0,3.73.41H51.25A17.22,17.22,0,0,0,68.48,29h0A17.23,17.23,0,0,0,51.25,11.75Z"/><path class="cls-3" d="M49,51.77H74.33A17.23,17.23,0,0,1,91.56,69h0a17.16,17.16,0,0,1-3.07,9.8h0L93.58,91.7a.62.62,0,0,1-.83.79L78.06,85.81a17,17,0,0,1-3.73.42H49A17.24,17.24,0,0,1,31.77,69h0A17.23,17.23,0,0,1,49,51.77Z"/><path class="cls-2" d="M75.07,65.34H48.21a1.5,1.5,0,0,1,0-3H75.07a1.5,1.5,0,0,1,0,3Z"/><path class="cls-2" d="M75.07,75.42H48.21a1.5,1.5,0,1,1,0-3H75.07a1.5,1.5,0,0,1,0,3Z"/><path class="cls-3" d="M52.3,25.5H25.44a1.5,1.5,0,1,1,0-3H52.3a1.5,1.5,0,0,1,0,3Z"/><path class="cls-3" d="M52.3,35.58H25.44a1.5,1.5,0,1,1,0-3H52.3a1.5,1.5,0,0,1,0,3Z"/></svg>