<svg id="Layer_1" data-name="Layer 1" xmlns="http://www.w3.org/2000/svg" viewBox="0 0 100 100"><defs><style>.cls-1{fill:#fff;opacity:0;}.cls-2{fill:#b5b5b5;}.cls-3{fill:#797979;}</style></defs><rect class="cls-1" width="100" height="100"/><rect class="cls-2" x="19" y="14.91" width="50.11" height="66.09"/><path class="cls-3" d="M56.52,31.72H31.59a1.5,1.5,0,0,1,0-3H56.52a1.5,1.5,0,1,1,0,3Z"/><path class="cls-3" d="M56.52,43.64H31.59a1.5,1.5,0,0,1,0-3H56.52a1.5,1.5,0,0,1,0,3Z"/><path class="cls-3" d="M56.52,55.56H31.59a1.5,1.5,0,0,1,0-3H56.52a1.5,1.5,0,1,1,0,3Z"/><path class="cls-3" d="M56.52,67.49H31.59a1.5,1.5,0,0,1,0-3H56.52a1.5,1.5,0,0,1,0,3Z"/><path class="cls-3" d="M93.89,72.52,77.61,56.24a18.83,18.83,0,1,0-2.09,2.15L91.77,74.64a1.51,1.51,0,0,0,1.06.44,1.5,1.5,0,0,0,1.06-2.56ZM63.26,60.06A15.53,15.53,0,1,1,78.79,44.54,15.54,15.54,0,0,1,63.26,60.06Z"/></svg>