<svg id="Layer_1" data-name="Layer 1" xmlns="http://www.w3.org/2000/svg" viewBox="0 0 100 100"><defs><style>.cls-1{fill:#fff;opacity:0;}.cls-2{fill:#cacaca;}.cls-3{fill:#949494;}</style></defs><rect class="cls-1" width="100" height="100"/><circle class="cls-2" cx="50" cy="50" r="22"/><path class="cls-3" d="M50,21.78a1.67,1.67,0,0,1-1.67-1.67V5.75a1.67,1.67,0,0,1,3.34,0V20.11A1.67,1.67,0,0,1,50,21.78Z"/><path class="cls-3" d="M50,95.92a1.67,1.67,0,0,1-1.67-1.67V79.89a1.67,1.67,0,0,1,3.34,0V94.25A1.67,1.67,0,0,1,50,95.92Z"/><path class="cls-3" d="M33.57,22.55a1,1,0,0,1-.86-.5l-5.08-8.79a1,1,0,0,1,1.74-1l5.07,8.79a1,1,0,0,1-.37,1.37A1,1,0,0,1,33.57,22.55Z"/><path class="cls-3" d="M71.5,88.24a1,1,0,0,1-.87-.5L65.56,79a1,1,0,1,1,1.73-1l5.08,8.79a1,1,0,0,1-.87,1.5Z"/><path class="cls-3" d="M24.11,36.73a1.68,1.68,0,0,1-.83-.23L10.84,29.32a1.67,1.67,0,1,1,1.67-2.89L25,33.61a1.67,1.67,0,0,1-.84,3.12Z"/><path class="cls-3" d="M88.32,73.8a1.68,1.68,0,0,1-.83-.23L75.05,66.39a1.67,1.67,0,1,1,1.67-2.89l12.44,7.18a1.67,1.67,0,0,1-.84,3.12Z"/><path class="cls-3" d="M17.15,51H7a1,1,0,0,1,0-2H17.15a1,1,0,1,1,0,2Z"/><path class="cls-3" d="M93,51H82.85a1,1,0,0,1,0-2H93a1,1,0,0,1,0,2Z"/><path class="cls-3" d="M11.68,73.8a1.67,1.67,0,0,1-.84-3.12L23.28,63.5A1.67,1.67,0,0,1,25,66.39L12.51,73.57A1.68,1.68,0,0,1,11.68,73.8Z"/><path class="cls-3" d="M75.89,36.73a1.67,1.67,0,0,1-.84-3.12l12.44-7.18a1.67,1.67,0,0,1,1.67,2.89L76.72,36.5A1.68,1.68,0,0,1,75.89,36.73Z"/><path class="cls-3" d="M28.5,88.24a1,1,0,0,1-.87-1.5L32.71,78a1,1,0,1,1,1.73,1l-5.07,8.79A1,1,0,0,1,28.5,88.24Z"/><path class="cls-3" d="M66.43,22.55a1,1,0,0,1-.5-.13,1,1,0,0,1-.37-1.37l5.07-8.79a1,1,0,1,1,1.74,1l-5.08,8.79A1,1,0,0,1,66.43,22.55Z"/></svg>