<svg id="Layer_1" data-name="Layer 1" xmlns="http://www.w3.org/2000/svg" viewBox="0 0 100 100"><defs><style>.cls-1{fill:#b5b5b5;}.cls-2{fill:#797979;}</style></defs><circle class="cls-1" cx="48.28" cy="52.25" r="34.04"/><circle class="cls-2" cx="35.04" cy="52.32" r="3.78"/><circle class="cls-2" cx="61.52" cy="52.32" r="3.78"/><path class="cls-2" d="M40.87,65.41H55.69a4.86,4.86,0,0,1,4.86,4.86v2.17a1.16,1.16,0,0,1-1.16,1.16H37.17A1.16,1.16,0,0,1,36,72.44V70.27a4.86,4.86,0,0,1,4.86-4.86Z"/><path class="cls-2" d="M88,42.49l-5.43-9.31a.4.4,0,0,0-.7,0l-5.42,9.31a6.77,6.77,0,0,0-1,3.37,6.89,6.89,0,0,0,6.72,7A6.79,6.79,0,0,0,88,42.49Z"/><path class="cls-2" d="M67.92,42a15.55,15.55,0,0,1-5.59-1.66,24.71,24.71,0,0,1-3.82-2.75l-1.14-.92a1.38,1.38,0,0,0-.85-.3,1.38,1.38,0,0,0-1.37,1.22,1.37,1.37,0,0,0,.29,1,18,18,0,0,0,5.24,4.73,11.76,11.76,0,0,0,3.54,1.28,11,11,0,0,0,2.18.21,12.54,12.54,0,0,0,1.49-.09,1.36,1.36,0,0,0,1.2-1.18A1.37,1.37,0,0,0,67.92,42Z"/><path class="cls-2" d="M40,36.41a1.38,1.38,0,0,0-.85.3l-1.14.92a23.91,23.91,0,0,1-3.81,2.74A15.48,15.48,0,0,1,28.66,42a1.37,1.37,0,0,0,0,2.73,12.54,12.54,0,0,0,1.49.09,11.22,11.22,0,0,0,2.19-.21,11.7,11.7,0,0,0,3.53-1.28,17.89,17.89,0,0,0,5.24-4.73A1.38,1.38,0,0,0,40,36.41Z"/></svg>