<svg id="Layer_1" data-name="Layer 1" xmlns="http://www.w3.org/2000/svg" viewBox="0 0 100 100"><defs><style>.cls-1{fill:#fff;opacity:0;}.cls-2{fill:#dedede;}.cls-3{fill:#b5b5b5;}.cls-4{fill:#797979;}</style></defs><rect class="cls-1" width="100" height="100"/><path class="cls-2" d="M45,18.55,13,73.89a5.78,5.78,0,0,0,5,8.67H82a5.78,5.78,0,0,0,5-8.67L55,18.55A5.78,5.78,0,0,0,45,18.55Z"/><path class="cls-3" d="M82,85.56H18.05a8.78,8.78,0,0,1-7.61-13.17l32-55.34a8.77,8.77,0,0,1,15.2,0l32,55.34A8.78,8.78,0,0,1,82,85.56ZM47.59,20.05,15.64,75.39a2.78,2.78,0,0,0,2.41,4.17H82a2.78,2.78,0,0,0,2.41-4.17L52.41,20.05a2.78,2.78,0,0,0-4.82,0Z"/><path class="cls-4" d="M47.1,56.94V38.61a3.06,3.06,0,0,1,6.11,0V56.94a3.06,3.06,0,1,1-6.11,0Z"/><circle class="cls-4" cx="50.15" cy="69.17" r="3.83"/></svg>