<svg xmlns="http://www.w3.org/2000/svg" xmlns:xlink="http://www.w3.org/1999/xlink" width="384" zoomAndPan="magnify" viewBox="0 0 288 1079.999946" height="1440" preserveAspectRatio="xMidYMid meet" version="1.0"><defs><clipPath id="8fd3159f51"><path d="M 0.332031 539.285156 L 31.367188 539.285156 L 31.367188 809.996094 L 0.332031 809.996094 Z M 0.332031 539.285156 " clip-rule="nonzero"/></clipPath><clipPath id="02b4e1e09a"><path d="M 0.332031 0.285156 L 31.367188 0.285156 L 31.367188 270.996094 L 0.332031 270.996094 Z M 0.332031 0.285156 " clip-rule="nonzero"/></clipPath><clipPath id="ebffbd1bc7"><rect x="0" width="32" y="0" height="271"/></clipPath><clipPath id="7cbf65e1e4"><path d="M 0.332031 269.28125 L 31.367188 269.28125 L 31.367188 539.992188 L 0.332031 539.992188 Z M 0.332031 269.28125 " clip-rule="nonzero"/></clipPath><clipPath id="ca792e36e0"><path d="M 0.332031 0.28125 L 31.367188 0.28125 L 31.367188 270.992188 L 0.332031 270.992188 Z M 0.332031 0.28125 " clip-rule="nonzero"/></clipPath><clipPath id="87bbd5233d"><rect x="0" width="32" y="0" height="271"/></clipPath><clipPath id="74096d482f"><path d="M 0.332031 0 L 31.667969 0 L 31.667969 270.730469 L 0.332031 270.730469 Z M 0.332031 0 " clip-rule="nonzero"/></clipPath><clipPath id="acdc243355"><path d="M 0.332031 0 L 31.667969 0 L 31.667969 270.730469 L 0.332031 270.730469 Z M 0.332031 0 " clip-rule="nonzero"/></clipPath><clipPath id="30ee9b0cc6"><rect x="0" width="32" y="0" height="271"/></clipPath><clipPath id="c98ccb8929"><path d="M 0.332031 809.289062 L 31.367188 809.289062 L 31.367188 1080 L 0.332031 1080 Z M 0.332031 809.289062 " clip-rule="nonzero"/></clipPath><clipPath id="17ee59d082"><path d="M 0.332031 0.289062 L 31.367188 0.289062 L 31.367188 271 L 0.332031 271 Z M 0.332031 0.289062 " clip-rule="nonzero"/></clipPath><clipPath id="298ff3ca1e"><rect x="0" width="32" y="0" height="271"/></clipPath><clipPath id="77f6537393"><rect x="0" width="32" y="0" height="1080"/></clipPath></defs><g transform="matrix(1, 0, 0, 1, 128, -0.000000000000003846)"><g clip-path="url(#77f6537393)"><g clip-path="url(#8fd3159f51)"><g transform="matrix(1, 0, 0, 1, 0.000000000000014211, 539)"><g clip-path="url(#ebffbd1bc7)"><g clip-path="url(#02b4e1e09a)"><path fill="#ff775c" d="M 0.332031 0.285156 L 31.367188 0.285156 L 31.367188 271.007812 L 0.332031 271.007812 Z M 0.332031 0.285156 " fill-opacity="1" fill-rule="nonzero"/></g></g></g></g><g clip-path="url(#7cbf65e1e4)"><g transform="matrix(1, 0, 0, 1, 0.000000000000014211, 269)"><g clip-path="url(#87bbd5233d)"><g clip-path="url(#ca792e36e0)"><path fill="#64cebf" d="M 0.332031 0.28125 L 31.367188 0.28125 L 31.367188 271.003906 L 0.332031 271.003906 Z M 0.332031 0.28125 " fill-opacity="1" fill-rule="nonzero"/></g></g></g></g><g clip-path="url(#74096d482f)"><g transform="matrix(1, 0, 0, 1, 0.000000000000014211, -0.000000000000003846)"><g clip-path="url(#30ee9b0cc6)"><g clip-path="url(#acdc243355)"><path fill="#ffd645" d="M 0.332031 0 L 31.667969 0 L 31.667969 270.757812 L 0.332031 270.757812 Z M 0.332031 0 " fill-opacity="1" fill-rule="nonzero"/></g></g></g></g><g clip-path="url(#c98ccb8929)"><g transform="matrix(1, 0, 0, 1, 0.000000000000014211, 809)"><g clip-path="url(#298ff3ca1e)"><g clip-path="url(#17ee59d082)"><path fill="#86b6ff" d="M 0.332031 0.289062 L 31.367188 0.289062 L 31.367188 271.011719 L 0.332031 271.011719 Z M 0.332031 0.289062 " fill-opacity="1" fill-rule="nonzero"/></g></g></g></g></g></g></svg>