<svg width="100" height="100" viewBox="0 0 397.37 394.67" fill="none" xmlns="http://www.w3.org/2000/svg">
<path d="M377.85,68.63c-4,36.4-19,60.14-65.68,51.43l15.82-57S346.19,67.83,377.85,68.63Z" fill="#C75E5A"/>
<path d="M371.85,94.82c3.06-7.56,4.94-16.42,6-26.19-7.51-.19-14.24-.61-20.17-1.12A74.09,74.09,0,0,0,371.85,94.82Z" fill="#F9907B"/>
<path d="M289.22,247.47V345.6s21.36-3.17,25.32,23.74h-64.1V268.05S275.76,260.13,289.22,247.47Z" fill="#C75E5A"/>
<path d="M184,257.76c-16.62,25.32-35.61,50.64-61.73,59.35V344s26.12,2.37,27.7,24.53H117.49s-19-3.17-20.57-23.74V247.47Z" fill="#C75E5A"/>
<path d="M290,370.13S287.64,348,263.1,345.6V272.79s41.95-4.74,45.11-53V147a37,37,0,0,1,11.87-18.2c9.5-7.92,27.7-45.11,4.75-78.35S244.11,28.26,236.2,66.25c0,0-13.45,68.06-32.45,72s-68.05,7.91-103.66,1.58S50.23,111.36,57.35,81.29,96.13,52,93,40.93s-34-10.29-45.89,24.53c0,0-31.66,51.43,29.27,101.29,0,0-9.49,11.87-7.12,40.36s-15,62.52-26.11,73.59-1.58,57.77-1.58,57.77,2.37,32.45,25.32,33.24,29.28-1.58,29.28-1.58.79-21.37-27.7-25.33V318.69s40.36-18.2,54.61-38,34-30.86,53.81-21.36,35.61,15.83,35.61,15.83L233,353.51s.79,17.41,19.79,18.2Z" fill="#F9907B"/>
<path d="M283.68,70.21C294,86,320.08,150.13,303.46,167.54s-59.35,3.17-56.18-37.19S265.48,49.63,283.68,70.21Z" fill="#C75E5A"/>
<path d="M210.08,135.89c7.13,25.32,17.41,72.81-9.49,78.34s-122.15-11.74-95.76-50.64c15-22.16,27.7-21.37,27.7-21.37S194.26,145.39,210.08,135.89Z" fill="#C75E5A"/>
<path d="M313,73c0,6.33-4.79,11.47-10.68,11.47S291.59,79.31,291.59,73s4.79-11.48,10.69-11.48S313,66.64,313,73Z" fill="#3d3d3d"/>
</svg>
