<svg width="100" height="100" viewBox="0 0 100 100" fill="none" xmlns="http://www.w3.org/2000/svg">
<!-- Hourglass outline -->
<path d="M30 18H70V18C70 18 56 38 56 50C56 62 70 82 70 82V82H30V82C30 82 44 62 44 50C44 38 30 18 30 18Z" fill="#FAC1B5" stroke="#C75E5A" stroke-width="3" stroke-linejoin="round"/>
<!-- Top bar -->
<rect x="26" y="14" width="48" height="6" rx="3" fill="#C75E5A"/>
<!-- Bottom bar -->
<rect x="26" y="80" width="48" height="6" rx="3" fill="#C75E5A"/>
<!-- Sand in top -->
<path d="M38 24C38 24 44 38 44 44H56C56 38 62 24 62 24H38Z" fill="#F9907B"/>
<!-- Sand in bottom -->
<path d="M44 56C44 62 36 74 34 76H66C64 74 56 62 56 56H44Z" fill="#F9907B"/>
<!-- Coin in center -->
<circle cx="50" cy="50" r="7" fill="#C75E5A"/>
<text x="50" y="54" font-family="sans-serif" font-size="9" font-weight="bold" fill="white" text-anchor="middle">$</text>
</svg>
